<svg style="fill:#5B27A0;" enable-background="new 0 0 100 92.316" version="1.1"
  viewBox="0 0 100
  115.39500000000001" x="0px" xml:space="preserve"
  xmlns:xlink="http://www.w3.org/1999/xlink" xmlns="http://www.w3.org/2000/svg" y="0px"><path
  d="M73.804,19.475c5.23-1.048,8.635-6.199,7.576-11.49c-1.063-5.3-6.184-8.729-11.417-7.68
  c-5.244,1.05-8.631,6.18-7.57,11.483C63.449,17.077,68.559,20.524,73.804,19.475"/><path
  d="M62.535,49.721L51.276,39.144l8.157-17.421c1.187-2.534,1.668-6.875-0.367-10.067C57.113,8.594,43.722-0.873,26.874,6.893
  c-11.819,5.449-18.21,16.166-18.21,27.357v50.156c0,2.247,0.781,4.123,2.341,5.645c1.561,1.508,3.415,2.265,5.564,2.265
  c2.247,0,4.149-0.757,5.709-2.265c1.561-1.521,2.344-3.397,2.344-5.645V40.642c0,0-0.328-9.981,12.06-13.782
  c4.086-1.253,8.138,0.099,8.919,0.499L40.54,38.174c-0.929,1.985-0.479,4.342,1.12,5.843L55.598,57.11
  c0.978,0.917,2.224,1.373,3.468,1.373c1.351,0,2.696-0.535,3.695-1.599C64.677,54.844,64.576,51.637,62.535,49.721z"/><path
  d="M58.188,40.177l15.496,15.335h20.204V34.525H61.752c0,0-2.504-0.099-3.688,1.663C56.673,38.256,58.188,40.177,58.188,40.177
  z"/><path
  d="M86.805,32.518c-0.726,0-1.386-0.473-1.605-1.166c0-0.017,0-0.035-0.016-0.035c-0.118-0.439-0.068-0.894,0.135-1.3
  c0.219-0.389,0.574-0.676,1.014-0.812c0.86-0.252,1.841,0.271,2.095,1.133c0.136,0.439,0.084,0.896-0.135,1.3
  c-0.221,0.389-0.574,0.676-1.014,0.812C87.125,32.484,86.973,32.518,86.805,32.518L86.805,32.518z"/><path
  d="M70.639,28.783c-0.373,0-0.711-0.117-1.014-0.336c-0.744-0.541-0.912-1.605-0.354-2.366c0.016-0.016,0.032-0.033,0.05-0.049
  c0.54-0.677,1.604-0.829,2.313-0.306c0.744,0.541,0.912,1.606,0.355,2.348C71.685,28.514,71.179,28.783,70.639,28.783L70.639,28.783
  z"/><path
  d="M84.288,27.922c-0.49,0-0.946-0.201-1.268-0.557c0-0.017-0.017-0.033-0.032-0.05c-0.271-0.322-0.423-0.744-0.39-1.183
  c0.016-0.439,0.219-0.861,0.557-1.167c0.658-0.59,1.774-0.523,2.382,0.135c0.305,0.338,0.456,0.761,0.423,1.218
  c-0.016,0.455-0.22,0.861-0.558,1.165C85.1,27.771,84.692,27.922,84.288,27.922L84.288,27.922z"/><path
  d="M74.71,25.49h-0.018c-0.676,0-1.302-0.405-1.554-1.047c-0.373-0.845,0.049-1.841,0.913-2.196
  c0.016-0.016,0.032-0.033,0.066-0.033c0.827-0.306,1.807,0.117,2.129,0.945c0.186,0.404,0.186,0.861,0,1.283
  c-0.151,0.388-0.457,0.709-0.845,0.879c-0.018,0.017-0.034,0.033-0.068,0.033C75.132,25.44,74.929,25.49,74.71,25.49L74.71,25.49z"/><path
  d="M79.862,25.136c-0.136,0-0.288-0.018-0.423-0.051c-0.895-0.254-1.437-1.181-1.2-2.079c0.238-0.878,1.183-1.419,2.061-1.198

  c0.44,0.117,0.812,0.406,1.031,0.793c0.235,0.388,0.287,0.845,0.17,1.284C81.299,24.63,80.639,25.136,79.862,25.136L79.862,25.136z"/>
</svg>
