<svg style="enable-background:new 0 0 60 60; fill:#5B27A0;" version="1.1" viewBox="0 0 60 75"
  x="0px" xml:space="preserve" xmlns:xlink="http://www.w3.org/1999/xlink"
  xmlns="http://www.w3.org/2000/svg" y="0px">
  <g><g><path
    d="M50.5,36c-3.118,0-7.068-5.357-9.428-8.558c-0.273-0.37-0.531-0.72-0.772-1.042c-1.307-1.743-2.471-4.857-3.497-7.605
    C35.273,14.703,34.266,12,32.5,12c-2.151,0-4.729,2.33-7.412,4.999c-1.183-0.011-3.566-0.106-5.141-0.893
    c-0.68-0.34-1.628-1.212-2.546-2.055C15.695,12.482,14.083,11,12.5,11c-3.143,0-5.348,5.881-5.949,7.684
    c-0.342,1.025-1.16,1.987-2.026,3.005C3.107,23.356,1.5,25.245,1.5,28c0,5.107,8.028,7.395,14.479,9.23
    c2.178,0.621,4.059,1.155,5.074,1.664c0.633,0.315,1.517,0.783,2.582,1.346C29.426,43.302,40.208,49,45.5,49
    c11.732,0,13-4.896,13-7C58.5,39.282,54.932,36,50.5,36z
    M45.5,47c-4.796,0-15.694-5.76-20.931-8.527
    c-1.081-0.57-1.979-1.046-2.622-1.367c-1.182-0.59-3.146-1.149-5.421-1.797C11.339,33.83,3.5,31.598,3.5,28
    c0-0.97,0.29-1.809,0.732-2.59c2.031,2.567,6.396,3.962,9.986,5.104c1.519,0.484,2.955,0.94,3.834,1.381
    c1.17,0.584,3.056,1.847,5.239,3.308c6.519,4.362,16.161,10.806,24.538,11.718C47.093,46.973,46.316,47,45.5,47z
    M56.334,43.023
    c-0.148,0.024-0.293,0.074-0.422,0.168c-8.186,5.951-22.785-3.814-31.507-9.651c-2.332-1.562-4.174-2.793-5.457-3.435
    c-1.02-0.51-2.458-0.967-4.123-1.497c-3.404-1.083-8.037-2.562-9.355-4.933c0.189-0.229,0.383-0.459,0.58-0.69
    c0.952-1.119,1.936-2.276,2.4-3.669C9.75,15.415,11.565,13,12.501,13c0.804,0,2.39,1.458,3.548,2.523
    c1.066,0.98,2.073,1.905,3.005,2.372C21.264,19,24.452,19,25.5,19h0.414l0.293-0.293c1.615-1.615,4.595-4.595,6.204-4.704
    c0.538,0.394,1.412,2.564,2.123,4.439l-2.589,1.726c-0.459,0.306-0.584,0.927-0.277,1.387C31.861,21.844,32.178,22,32.501,22
    c0.19,0,0.383-0.054,0.554-0.168l2.201-1.467c0.391,1.036,0.799,2.092,1.232,3.108l-2.543,1.695
    c-0.459,0.306-0.582,0.927-0.276,1.387C33.861,26.844,34.18,27,34.502,27c0.189,0,0.383-0.054,0.555-0.168l2.28-1.521
    c0.431,0.858,0.882,1.646,1.365,2.289c0.118,0.158,0.253,0.341,0.38,0.513c-0.044,0.021-0.094,0.027-0.135,0.055l-3,2
    c-0.459,0.306-0.584,0.927-0.277,1.387C35.863,31.844,36.18,32,36.503,32c0.19,0,0.383-0.055,0.554-0.168l3-2
    c0.07-0.047,0.117-0.112,0.172-0.172C42.951,33.314,46.736,38,50.5,38c3.525,0,6,2.595,6,4
    C56.5,42.357,56.439,42.698,56.334,43.023z"/></g></g>
</svg>
